<?xml version="1.0" encoding="UTF-8"?>
<svg id="Layer_1" data-name="Layer 1" xmlns="http://www.w3.org/2000/svg" viewBox="0 0 728.17 816.74">
  <defs>
    <style>
      .cls-1 {
        fill: #00394f;
      }

      .cls-2 {
        fill: #fff;
      }
    </style>
  </defs>
  <path class="cls-1" d="m224.53,615.99c12.29,18.02,18.44,47.06,18.44,87.14,0,29.12-3.41,50.59-10.23,64.4-6.82,13.8-20,25.38-39.53,34.72-19.53,9.35-42.26,14.02-68.19,14.02-28.45,0-52.74-5.39-72.86-16.16-20.12-10.78-33.3-24.5-39.53-41.17s-9.34-40.32-9.34-70.97v-26.77h98.75v49.76c0,15.32,1.39,25.17,4.17,29.54,2.77,4.38,7.7,6.57,14.77,6.57s12.33-2.78,15.78-8.33c3.46-5.56,5.18-13.81,5.18-24.75,0-24.08-3.28-39.82-9.85-47.23-6.73-7.41-23.32-19.79-49.75-37.13-26.44-17.51-43.95-30.22-52.53-38.13-8.59-7.92-15.7-18.86-21.34-32.84-5.65-13.97-8.47-31.82-8.47-53.54,0-31.32,4-54.21,12-68.69,7.05-12.76,17.91-23.07,32.61-30.92-15.91-10.03-26.57-22.28-31.98-36.77-6.23-16.67-9.34-40.33-9.34-70.97v-26.77h98.75v49.75c0,15.32,1.39,25.17,4.17,29.55,2.77,4.38,7.7,6.57,14.77,6.57s12.33-2.78,15.78-8.34c3.46-5.55,5.18-13.8,5.18-24.75,0-24.07-3.28-39.82-9.85-47.23-6.73-7.4-23.32-19.78-49.75-37.12-26.44-17.51-43.95-30.22-52.53-38.14-8.59-7.91-15.7-18.86-21.34-32.83C2.82,154.48,0,136.64,0,114.92c0-31.32,4-54.22,12-68.7S32.92,20.42,50.77,12.25C68.62,4.09,90.17,0,115.42,0c27.62,0,51.15,4.47,70.59,13.39,19.45,8.92,32.33,20.16,38.64,33.72,6.32,13.55,9.48,36.57,9.48,69.07v16.16h-98.75v-30.3c0-14.15-1.27-23.15-3.79-27.03-2.53-3.87-6.74-5.81-12.63-5.81-6.4,0-11.24,2.61-14.52,7.83-3.29,5.22-4.93,13.14-4.93,23.79,0,13.63,1.85,23.9,5.56,30.81,3.49,6.9,13.51,15.24,30.01,25,47.36,28.08,77.16,51.14,89.45,69.16,12.29,18.02,18.44,47.06,18.44,87.13,0,29.13-3.41,50.6-10.23,64.4-6.27,12.7-17.93,23.52-34.96,32.43,12.98,7.77,21.93,16.96,26.87,27.56,6.32,13.55,9.48,36.58,9.48,69.07v16.17h-98.75v-30.31c0-14.14-1.27-23.15-3.79-27.02-2.53-3.88-6.74-5.81-12.63-5.81-6.4,0-11.24,2.61-14.52,7.83-3.29,5.22-4.93,13.13-4.93,23.78,0,13.64,1.85,23.91,5.56,30.81,3.49,6.9,13.51,15.24,30.01,25,47.36,28.08,77.16,51.15,89.45,69.16Z"/>
  <path class="cls-1" d="m728.17,577.63h-106.19v-70.96c0-20.64-1.14-33.55-3.41-38.63-2.27-5.13-7.27-7.69-15.01-7.69-8.74,0-14.29,3.11-16.65,9.33-2.35,6.22-3.53,19.67-3.53,40.36v189.67c0,19.84,1.18,32.79,3.53,38.84,2.35,6.05,7.65,9.08,15.89,9.08s13.07-3.03,15.51-9.08c2.44-6.1,3.66-20.35,3.66-42.75v-51.33h106.19v15.93c0,42.25-2.98,72.22-8.95,89.92-5.97,17.66-19.17,33.17-39.6,46.45-20.43,13.33-45.61,19.97-75.54,19.97s-56.75-5.63-76.93-16.9c-20.18-11.27-33.55-26.86-40.1-46.79-6.56-19.93-9.84-49.9-9.84-89.92v-119.3c0-29.43,1.01-51.5,3.03-66.21,2.02-14.71,8.03-28.88,18.03-42.5,10-13.62,23.88-24.34,41.62-32.16,17.74-7.82,38.13-11.73,61.16-11.73,31.28,0,57.09,6.05,77.43,18.12,20.35,12.11,33.71,27.2,40.1,45.23,6.39,18.03,9.58,46.12,9.58,84.24v38.8Z"/>
  <path class="cls-2" d="m473.19,316.77h-116.89v-70.46h100.03c11.5,0,20.98-9,21.57-20.48l3-57.83h-124.6v-58.68h127.64l5.24-101.14h-129.04c-55.86,0-101.13,45.28-101.13,101.14v389.97c0-55.86,45.28-101.14,101.13-101.14h108.82l4.22-81.38Z"/>
  <path class="cls-1" d="m468.97,398.15l-1.02,19.75-4.22,81.38h-107.43v58.64h104.39l-2.95,56.85c-.59,11.48-10.08,20.48-21.57,20.48h-79.87v71.49h96.67l-5.24,101.13h-188.71v-308.59c0-55.85,45.28-101.13,101.13-101.13h108.82Z"/>
</svg>